<svg width="20" height="20" viewBox="0 0 20 20" fill="none" xmlns="http://www.w3.org/2000/svg">
<path d="M14.5833 1.75001C14.8241 1.50925 15.1099 1.31827 15.4245 1.18798C15.739 1.05768 16.0762 0.990616 16.4167 0.990616C16.7572 0.990616 17.0943 1.05768 17.4089 1.18798C17.7234 1.31827 18.0092 1.50925 18.25 1.75001C18.4908 1.99076 18.6817 2.27658 18.812 2.59115C18.9423 2.90571 19.0094 3.24286 19.0094 3.58334C19.0094 3.92382 18.9423 4.26097 18.812 4.57553C18.6817 4.8901 18.4908 5.17592 18.25 5.41667L5.875 17.7917L0.833336 19.1667L2.20834 14.125L14.5833 1.75001Z" stroke="#9E78CF" stroke-width="1.66667" stroke-linecap="round" stroke-linejoin="round"/>
</svg>
