<svg width="18" height="19" viewBox="0 0 18 19" fill="none" xmlns="http://www.w3.org/2000/svg">
<path d="M16.5138 3.125H1.38878C1.20644 3.125 1.03157 3.19743 0.902643 3.32636C0.773712 3.4553 0.701279 3.63016 0.701279 3.8125C0.701279 3.99484 0.773712 4.1697 0.902643 4.29864C1.03157 4.42757 1.20644 4.5 1.38878 4.5H2.07628V16.875C2.07628 17.2397 2.22114 17.5894 2.47901 17.8473C2.73687 18.1051 3.08661 18.25 3.45128 18.25H14.4513C14.816 18.25 15.1657 18.1051 15.4236 17.8473C15.6814 17.5894 15.8263 17.2397 15.8263 16.875V4.5H16.5138C16.6961 4.5 16.871 4.42757 16.9999 4.29864C17.1288 4.1697 17.2013 3.99484 17.2013 3.8125C17.2013 3.63016 17.1288 3.4553 16.9999 3.32636C16.871 3.19743 16.6961 3.125 16.5138 3.125ZM14.4513 16.875H3.45128V4.5H14.4513V16.875ZM4.82628 1.0625C4.82628 0.880164 4.89871 0.705295 5.02764 0.576364C5.15657 0.447433 5.33144 0.375 5.51378 0.375H12.3888C12.5711 0.375 12.746 0.447433 12.8749 0.576364C13.0038 0.705295 13.0763 0.880164 13.0763 1.0625C13.0763 1.24484 13.0038 1.4197 12.8749 1.54864C12.746 1.67757 12.5711 1.75 12.3888 1.75H5.51378C5.33144 1.75 5.15657 1.67757 5.02764 1.54864C4.89871 1.4197 4.82628 1.24484 4.82628 1.0625Z" fill="#9E78CF"/>
</svg>
